<svg xmlns="http://www.w3.org/2000/svg" xmlns:xlink="http://www.w3.org/1999/xlink" contentStyleType="text/css" data-diagram-type="SEQUENCE" height="1163px" preserveAspectRatio="none" style="width:917px;height:1163px;background:#FFFFFF;" version="1.1" viewBox="0 0 917 1163" width="917px" zoomAndPan="magnify"><?plantuml 1.2026.4beta2?><defs/><g><g class="title" data-source-line="1"><text fill="#000000" font-family="sans-serif" font-size="14" font-weight="700" lengthAdjust="spacing" textLength="312.6416" x="298.8784" y="27.9951">Fluxo 1: registro de checkpoint via OCR</text></g><rect fill="none" height="148.4688" style="stroke:#000000;stroke-width:1.5;" width="483.376" x="10" y="597.4531"/><g class="participant-lifeline" data-entity-uid="part1" data-qualified-name="Operador" data-source-line="3" id="part1-lifeline"><g><title>Operador</title><rect fill="#000000" fill-opacity="0.00000" height="962.6563" width="8" x="52.0313" y="118.5938"/><line style="stroke:#181818;stroke-width:0.5;stroke-dasharray:5,5;" x1="56" x2="56" y1="118.5938" y2="1081.25"/></g></g><g class="participant-lifeline" data-entity-uid="part2" data-qualified-name="Controller" data-source-line="4" id="part2-lifeline"><g><title>Controller</title><rect fill="#000000" fill-opacity="0.00000" height="962.6563" width="8" x="295.3047" y="118.5938"/><line style="stroke:#181818;stroke-width:0.5;stroke-dasharray:5,5;" x1="298.7183" x2="298.7183" y1="118.5938" y2="1081.25"/></g></g><g class="participant-lifeline" data-entity-uid="part3" data-qualified-name="Service" data-source-line="5" id="part3-lifeline"><g><title>Service</title><rect fill="#000000" fill-opacity="0.00000" height="962.6563" width="8" x="446.5054" y="118.5938"/><line style="stroke:#181818;stroke-width:0.5;stroke-dasharray:5,5;" x1="449.6348" x2="449.6348" y1="118.5938" y2="1081.25"/></g></g><g class="participant-lifeline" data-entity-uid="part4" data-qualified-name="Repository" data-source-line="6" id="part4-lifeline"><g><title>Repository</title><rect fill="#000000" fill-opacity="0.00000" height="962.6563" width="8" x="702.7407" y="118.5938"/><line style="stroke:#181818;stroke-width:0.5;stroke-dasharray:5,5;" x1="706.2046" x2="706.2046" y1="118.5938" y2="1081.25"/></g></g><g class="participant-lifeline" data-entity-uid="part5" data-qualified-name="Banco" data-source-line="7" id="part5-lifeline"><g><title>Banco</title><rect fill="#000000" fill-opacity="0.00000" height="962.6563" width="8" x="877.7388" y="118.5938"/><line style="stroke:#181818;stroke-width:0.5;stroke-dasharray:5,5;" x1="881.0791" x2="881.0791" y1="118.5938" y2="1081.25"/></g></g><g class="participant participant-head" data-entity-uid="part1" data-qualified-name="Operador" data-source-line="3" id="part1-head"><text fill="#000000" font-family="sans-serif" font-size="14" lengthAdjust="spacing" textLength="66.0625" x="20" y="115.292">Operador</text><ellipse cx="56.0313" cy="50.7969" fill="#E2E2F0" rx="8" ry="8" style="stroke:#181818;stroke-width:0.5;"/><path d="M56.0313,58.7969 L56.0313,85.7969 M43.0313,66.7969 L69.0313,66.7969 M56.0313,85.7969 L43.0313,100.7969 M56.0313,85.7969 L69.0313,100.7969" fill="none" style="stroke:#181818;stroke-width:0.5;"/></g><g class="participant participant-tail" data-entity-uid="part1" data-qualified-name="Operador" data-source-line="3" id="part1-tail"><text fill="#000000" font-family="sans-serif" font-size="14" lengthAdjust="spacing" textLength="66.0625" x="20" y="1093.2451">Operador</text><ellipse cx="56.0313" cy="1105.0469" fill="#E2E2F0" rx="8" ry="8" style="stroke:#181818;stroke-width:0.5;"/><path d="M56.0313,1113.0469 L56.0313,1140.0469 M43.0313,1121.0469 L69.0313,1121.0469 M56.0313,1140.0469 L43.0313,1155.0469 M56.0313,1140.0469 L69.0313,1155.0469" fill="none" style="stroke:#181818;stroke-width:0.5;"/></g><g class="participant participant-head" data-entity-uid="part2" data-qualified-name="Controller" data-source-line="4" id="part2-head"><rect fill="#E2E2F0" height="30.2969" rx="2.5" ry="2.5" style="stroke:#181818;stroke-width:0.5;" width="83.1729" x="257.7183" y="87.2969"/><text fill="#000000" font-family="sans-serif" font-size="14" lengthAdjust="spacing" textLength="69.1729" x="264.7183" y="107.292">Controller</text></g><g class="participant participant-tail" data-entity-uid="part2" data-qualified-name="Controller" data-source-line="4" id="part2-tail"><rect fill="#E2E2F0" height="30.2969" rx="2.5" ry="2.5" style="stroke:#181818;stroke-width:0.5;" width="83.1729" x="257.7183" y="1080.25"/><text fill="#000000" font-family="sans-serif" font-size="14" lengthAdjust="spacing" textLength="69.1729" x="264.7183" y="1100.2451">Controller</text></g><g class="participant participant-head" data-entity-uid="part3" data-qualified-name="Service" data-source-line="5" id="part3-head"><rect fill="#E2E2F0" height="30.2969" rx="2.5" ry="2.5" style="stroke:#181818;stroke-width:0.5;" width="65.7412" x="417.6348" y="87.2969"/><text fill="#000000" font-family="sans-serif" font-size="14" lengthAdjust="spacing" textLength="51.7412" x="424.6348" y="107.292">Service</text></g><g class="participant participant-tail" data-entity-uid="part3" data-qualified-name="Service" data-source-line="5" id="part3-tail"><rect fill="#E2E2F0" height="30.2969" rx="2.5" ry="2.5" style="stroke:#181818;stroke-width:0.5;" width="65.7412" x="417.6348" y="1080.25"/><text fill="#000000" font-family="sans-serif" font-size="14" lengthAdjust="spacing" textLength="51.7412" x="424.6348" y="1100.2451">Service</text></g><g class="participant participant-head" data-entity-uid="part4" data-qualified-name="Repository" data-source-line="6" id="part4-head"><rect fill="#E2E2F0" height="30.2969" rx="2.5" ry="2.5" style="stroke:#181818;stroke-width:0.5;" width="89.0723" x="662.2046" y="87.2969"/><text fill="#000000" font-family="sans-serif" font-size="14" lengthAdjust="spacing" textLength="75.0723" x="669.2046" y="107.292">Repository</text></g><g class="participant participant-tail" data-entity-uid="part4" data-qualified-name="Repository" data-source-line="6" id="part4-tail"><rect fill="#E2E2F0" height="30.2969" rx="2.5" ry="2.5" style="stroke:#181818;stroke-width:0.5;" width="89.0723" x="662.2046" y="1080.25"/><text fill="#000000" font-family="sans-serif" font-size="14" lengthAdjust="spacing" textLength="75.0723" x="669.2046" y="1100.2451">Repository</text></g><g class="participant participant-head" data-entity-uid="part5" data-qualified-name="Banco" data-source-line="7" id="part5-head"><text fill="#000000" font-family="sans-serif" font-size="14" lengthAdjust="spacing" textLength="43.3193" x="857.0791" y="115.292">Banco</text><path d="M863.7388,66.2969 C863.7388,56.2969 881.7388,56.2969 881.7388,56.2969 C881.7388,56.2969 899.7388,56.2969 899.7388,66.2969 L899.7388,92.2969 C899.7388,102.2969 881.7388,102.2969 881.7388,102.2969 C881.7388,102.2969 863.7388,102.2969 863.7388,92.2969 L863.7388,66.2969" fill="#E2E2F0" style="stroke:#181818;stroke-width:0.5;"/><path d="M863.7388,66.2969 C863.7388,76.2969 881.7388,76.2969 881.7388,76.2969 C881.7388,76.2969 899.7388,76.2969 899.7388,66.2969" fill="none" style="stroke:#181818;stroke-width:0.5;"/></g><g class="participant participant-tail" data-entity-uid="part5" data-qualified-name="Banco" data-source-line="7" id="part5-tail"><text fill="#000000" font-family="sans-serif" font-size="14" lengthAdjust="spacing" textLength="43.3193" x="857.0791" y="1093.2451">Banco</text><path d="M863.7388,1106.5469 C863.7388,1096.5469 881.7388,1096.5469 881.7388,1096.5469 C881.7388,1096.5469 899.7388,1096.5469 899.7388,1106.5469 L899.7388,1132.5469 C899.7388,1142.5469 881.7388,1142.5469 881.7388,1142.5469 C881.7388,1142.5469 863.7388,1142.5469 863.7388,1132.5469 L863.7388,1106.5469" fill="#E2E2F0" style="stroke:#181818;stroke-width:0.5;"/><path d="M863.7388,1106.5469 C863.7388,1116.5469 881.7388,1116.5469 881.7388,1116.5469 C881.7388,1116.5469 899.7388,1116.5469 899.7388,1106.5469" fill="none" style="stroke:#181818;stroke-width:0.5;"/></g><rect fill="#EEEEEE" height="3" style="stroke:#EEEEEE;stroke-width:1;" width="911.3984" x="0" y="149.1602"/><line style="stroke:#000000;stroke-width:1;" x1="0" x2="911.3984" y1="149.1602" y2="149.1602"/><line style="stroke:#000000;stroke-width:1;" x1="0" x2="911.3984" y1="152.1602" y2="152.1602"/><rect fill="#EEEEEE" height="23.1328" style="stroke:#000000;stroke-width:2;" width="218.0391" x="346.6797" y="138.5938"/><text fill="#000000" font-family="sans-serif" font-size="13" font-weight="700" lengthAdjust="spacing" textLength="199.5132" x="352.6797" y="154.6606">Fase 1: captura da imagem</text><g class="message" data-entity-1="part1" data-entity-2="part2" data-source-line="11" id="msg1"><polygon fill="#181818" points="287.3047,188.8594,297.3047,192.8594,287.3047,196.8594,291.3047,192.8594" style="stroke:#181818;stroke-width:1;"/><line style="stroke:#181818;stroke-width:1;" x1="56.0313" x2="293.3047" y1="192.8594" y2="192.8594"/><text fill="#000000" font-family="sans-serif" font-size="13" lengthAdjust="spacing" textLength="140.5244" x="63.0313" y="187.7935">POST /ocr/extractions</text></g><g class="message" data-entity-1="part2" data-entity-2="part3" data-source-line="12" id="msg2"><polygon fill="#181818" points="438.5054,217.9922,448.5054,221.9922,438.5054,225.9922,442.5054,221.9922" style="stroke:#181818;stroke-width:1;"/><line style="stroke:#181818;stroke-width:1;" x1="299.3047" x2="444.5054" y1="221.9922" y2="221.9922"/><text fill="#000000" font-family="sans-serif" font-size="13" lengthAdjust="spacing" textLength="121.5576" x="306.3047" y="216.9263">ocr.extract(image)</text></g><g class="message" data-entity-1="part3" data-entity-2="part4" data-source-line="13" id="msg3"><polygon fill="#181818" points="694.7407,247.125,704.7407,251.125,694.7407,255.125,698.7407,251.125" style="stroke:#181818;stroke-width:1;"/><line style="stroke:#181818;stroke-width:1;" x1="450.5054" x2="700.7407" y1="251.125" y2="251.125"/><text fill="#000000" font-family="sans-serif" font-size="13" lengthAdjust="spacing" textLength="232.2354" x="457.5054" y="246.0591">extraction.create(status=PENDING)</text></g><g class="message" data-entity-1="part4" data-entity-2="part5" data-source-line="14" id="msg4"><polygon fill="#181818" points="869.7388,276.2578,879.7388,280.2578,869.7388,284.2578,873.7388,280.2578" style="stroke:#181818;stroke-width:1;"/><line style="stroke:#181818;stroke-width:1;" x1="706.7407" x2="875.7388" y1="280.2578" y2="280.2578"/><text fill="#000000" font-family="sans-serif" font-size="13" lengthAdjust="spacing" textLength="150.998" x="713.7407" y="275.1919">INSERT ocr_extractions</text></g><g class="message" data-entity-1="part5" data-entity-2="part4" data-source-line="15" id="msg5"><polygon fill="#181818" points="717.7407,305.3906,707.7407,309.3906,717.7407,313.3906,713.7407,309.3906" style="stroke:#181818;stroke-width:1;"/><line style="stroke:#181818;stroke-width:1;stroke-dasharray:2,2;" x1="711.7407" x2="880.7388" y1="309.3906" y2="309.3906"/><text fill="#000000" font-family="sans-serif" font-size="13" lengthAdjust="spacing" textLength="110.0049" x="723.7407" y="304.3247">id e status inicial</text></g><g class="message" data-entity-1="part4" data-entity-2="part3" data-source-line="16" id="msg6"><polygon fill="#181818" points="461.5054,334.5234,451.5054,338.5234,461.5054,342.5234,457.5054,338.5234" style="stroke:#181818;stroke-width:1;"/><line style="stroke:#181818;stroke-width:1;stroke-dasharray:2,2;" x1="455.5054" x2="705.7407" y1="338.5234" y2="338.5234"/><text fill="#000000" font-family="sans-serif" font-size="13" lengthAdjust="spacing" textLength="127.042" x="467.5054" y="333.4575">OcrExtractionEntity</text></g><g class="message" data-entity-1="part3" data-entity-2="part3" data-source-line="17" id="msg7"><line style="stroke:#181818;stroke-width:1;" x1="450.5054" x2="492.5054" y1="367.6563" y2="367.6563"/><line style="stroke:#181818;stroke-width:1;" x1="492.5054" x2="492.5054" y1="367.6563" y2="380.6563"/><line style="stroke:#181818;stroke-width:1;" x1="450.5054" x2="492.5054" y1="380.6563" y2="380.6563"/><line style="stroke:#181818;stroke-width:1;" x1="451.5054" x2="461.5054" y1="380.6563" y2="376.6563"/><line style="stroke:#181818;stroke-width:1;" x1="451.5054" x2="461.5054" y1="380.6563" y2="384.6563"/><text fill="#000000" font-family="sans-serif" font-size="13" lengthAdjust="spacing" textLength="164.8169" x="457.5054" y="362.5903">processa OCR ass&#237;ncrono</text></g><g class="message" data-entity-1="part3" data-entity-2="part2" data-source-line="18" id="msg8"><polygon fill="#181818" points="310.3047,405.7891,300.3047,409.7891,310.3047,413.7891,306.3047,409.7891" style="stroke:#181818;stroke-width:1;"/><line style="stroke:#181818;stroke-width:1;stroke-dasharray:2,2;" x1="304.3047" x2="449.5054" y1="409.7891" y2="409.7891"/><text fill="#000000" font-family="sans-serif" font-size="13" lengthAdjust="spacing" textLength="127.2007" x="316.3047" y="404.7231">job de OCR iniciado</text></g><g class="message" data-entity-1="part2" data-entity-2="part1" data-source-line="19" id="msg9"><polygon fill="#181818" points="67.0313,434.9219,57.0313,438.9219,67.0313,442.9219,63.0313,438.9219" style="stroke:#181818;stroke-width:1;"/><line style="stroke:#181818;stroke-width:1;stroke-dasharray:2,2;" x1="61.0313" x2="298.3047" y1="438.9219" y2="438.9219"/><text fill="#000000" font-family="sans-serif" font-size="13" lengthAdjust="spacing" textLength="219.2734" x="73.0313" y="433.856">202 Accepted com id da extra&#231;&#227;o</text></g><rect fill="#EEEEEE" height="3" style="stroke:#EEEEEE;stroke-width:1;" width="911.3984" x="0" y="467.4883"/><line style="stroke:#000000;stroke-width:1;" x1="0" x2="911.3984" y1="467.4883" y2="467.4883"/><line style="stroke:#000000;stroke-width:1;" x1="0" x2="911.3984" y1="470.4883" y2="470.4883"/><rect fill="#EEEEEE" height="23.1328" style="stroke:#000000;stroke-width:2;" width="209.0571" x="351.1707" y="456.9219"/><text fill="#000000" font-family="sans-serif" font-size="13" font-weight="700" lengthAdjust="spacing" textLength="190.5313" x="357.1707" y="472.9888">Fase 2: valida&#231;&#227;o humana</text><g class="message" data-entity-1="part1" data-entity-2="part2" data-source-line="23" id="msg10"><polygon fill="#181818" points="287.3047,507.1875,297.3047,511.1875,287.3047,515.1875,291.3047,511.1875" style="stroke:#181818;stroke-width:1;"/><line style="stroke:#181818;stroke-width:1;" x1="56.0313" x2="293.3047" y1="511.1875" y2="511.1875"/><text fill="#000000" font-family="sans-serif" font-size="13" lengthAdjust="spacing" textLength="170.4092" x="63.0313" y="506.1216">PATCH /ocr/extractions/:id</text></g><g class="message" data-entity-1="part2" data-entity-2="part3" data-source-line="24" id="msg11"><polygon fill="#181818" points="438.5054,536.3203,448.5054,540.3203,438.5054,544.3203,442.5054,540.3203" style="stroke:#181818;stroke-width:1;"/><line style="stroke:#181818;stroke-width:1;" x1="299.3047" x2="444.5054" y1="540.3203" y2="540.3203"/><text fill="#000000" font-family="sans-serif" font-size="13" lengthAdjust="spacing" textLength="122.6621" x="306.3047" y="535.2544">validateData(data)</text></g><g class="message" data-entity-1="part3" data-entity-2="part3" data-source-line="25" id="msg12"><line style="stroke:#181818;stroke-width:1;" x1="450.5054" x2="492.5054" y1="569.4531" y2="569.4531"/><line style="stroke:#181818;stroke-width:1;" x1="492.5054" x2="492.5054" y1="569.4531" y2="582.4531"/><line style="stroke:#181818;stroke-width:1;" x1="451.5054" x2="492.5054" y1="582.4531" y2="582.4531"/><polygon fill="#181818" points="461.5054,578.4531,451.5054,582.4531,461.5054,586.4531,457.5054,582.4531" style="stroke:#181818;stroke-width:1;"/><text fill="#000000" font-family="sans-serif" font-size="13" lengthAdjust="spacing" textLength="151.2646" x="457.5054" y="564.3872">verifica inconsist&#234;ncias</text></g><path d="M10,597.4531 L74.4429,597.4531 L74.4429,604.5859 L64.4429,614.5859 L10,614.5859 L10,597.4531" fill="#EEEEEE" style="stroke:#000000;stroke-width:1.5;"/><rect fill="none" height="148.4688" style="stroke:#000000;stroke-width:1.5;" width="483.376" x="10" y="597.4531"/><text fill="#000000" font-family="sans-serif" font-size="13" font-weight="700" lengthAdjust="spacing" textLength="19.4429" x="25" y="610.52">alt</text><text fill="#000000" font-family="sans-serif" font-size="11" font-weight="700" lengthAdjust="spacing" textLength="141.3511" x="89.4429" y="609.6636">[dados inconsistentes]</text><g class="message" data-entity-1="part3" data-entity-2="part2" data-source-line="28" id="msg13"><polygon fill="#181818" points="310.3047,631.7188,300.3047,635.7188,310.3047,639.7188,306.3047,635.7188" style="stroke:#181818;stroke-width:1;"/><line style="stroke:#181818;stroke-width:1;stroke-dasharray:2,2;" x1="304.3047" x2="449.5054" y1="635.7188" y2="635.7188"/><text fill="#000000" font-family="sans-serif" font-size="13" lengthAdjust="spacing" textLength="116.2954" x="316.3047" y="630.6528">alerta com desvio</text></g><g class="message" data-entity-1="part2" data-entity-2="part1" data-source-line="29" id="msg14"><polygon fill="#181818" points="67.0313,660.8516,57.0313,664.8516,67.0313,668.8516,63.0313,664.8516" style="stroke:#181818;stroke-width:1;"/><line style="stroke:#181818;stroke-width:1;stroke-dasharray:2,2;" x1="61.0313" x2="298.3047" y1="664.8516" y2="664.8516"/><text fill="#000000" font-family="sans-serif" font-size="13" lengthAdjust="spacing" textLength="121.7163" x="73.0313" y="659.7856">200 OK com alerta</text></g><line style="stroke:#000000;stroke-width:1;stroke-dasharray:2,2;" x1="10" x2="493.376" y1="673.8516" y2="673.8516"/><text fill="#000000" font-family="sans-serif" font-size="11" font-weight="700" lengthAdjust="spacing" textLength="69.0347" x="15" y="684.062">[dados OK]</text><g class="message" data-entity-1="part3" data-entity-2="part2" data-source-line="31" id="msg15"><polygon fill="#181818" points="310.3047,704.7891,300.3047,708.7891,310.3047,712.7891,306.3047,708.7891" style="stroke:#181818;stroke-width:1;"/><line style="stroke:#181818;stroke-width:1;stroke-dasharray:2,2;" x1="304.3047" x2="449.5054" y1="708.7891" y2="708.7891"/><text fill="#000000" font-family="sans-serif" font-size="13" lengthAdjust="spacing" textLength="67.2153" x="316.3047" y="703.7231">tudo certo</text></g><g class="message" data-entity-1="part2" data-entity-2="part1" data-source-line="32" id="msg16"><polygon fill="#181818" points="67.0313,733.9219,57.0313,737.9219,67.0313,741.9219,63.0313,737.9219" style="stroke:#181818;stroke-width:1;"/><line style="stroke:#181818;stroke-width:1;stroke-dasharray:2,2;" x1="61.0313" x2="298.3047" y1="737.9219" y2="737.9219"/><text fill="#000000" font-family="sans-serif" font-size="13" lengthAdjust="spacing" textLength="157.2441" x="73.0313" y="732.856">200 OK dados validados</text></g><rect fill="#EEEEEE" height="3" style="stroke:#EEEEEE;stroke-width:1;" width="911.3984" x="0" y="773.4883"/><line style="stroke:#000000;stroke-width:1;" x1="0" x2="911.3984" y1="773.4883" y2="773.4883"/><line style="stroke:#000000;stroke-width:1;" x1="0" x2="911.3984" y1="776.4883" y2="776.4883"/><rect fill="#EEEEEE" height="23.1328" style="stroke:#000000;stroke-width:2;" width="205.4707" x="352.9639" y="762.9219"/><text fill="#000000" font-family="sans-serif" font-size="13" font-weight="700" lengthAdjust="spacing" textLength="186.9448" x="358.9639" y="778.9888">Fase 3: salvar checkpoint</text><g class="message" data-entity-1="part1" data-entity-2="part2" data-source-line="37" id="msg17"><polygon fill="#181818" points="287.3047,813.1875,297.3047,817.1875,287.3047,821.1875,291.3047,817.1875" style="stroke:#181818;stroke-width:1;"/><line style="stroke:#181818;stroke-width:1;" x1="56.0313" x2="293.3047" y1="817.1875" y2="817.1875"/><text fill="#000000" font-family="sans-serif" font-size="13" lengthAdjust="spacing" textLength="120.7642" x="63.0313" y="812.1216">POST /checkpoints</text></g><g class="message" data-entity-1="part2" data-entity-2="part3" data-source-line="38" id="msg18"><polygon fill="#181818" points="438.5054,842.3203,448.5054,846.3203,438.5054,850.3203,442.5054,846.3203" style="stroke:#181818;stroke-width:1;"/><line style="stroke:#181818;stroke-width:1;" x1="299.3047" x2="444.5054" y1="846.3203" y2="846.3203"/><text fill="#000000" font-family="sans-serif" font-size="13" lengthAdjust="spacing" textLength="113.7183" x="306.3047" y="841.2544">saveCheckpoint()</text></g><g class="message" data-entity-1="part3" data-entity-2="part4" data-source-line="39" id="msg19"><polygon fill="#181818" points="694.7407,871.4531,704.7407,875.4531,694.7407,879.4531,698.7407,875.4531" style="stroke:#181818;stroke-width:1;"/><line style="stroke:#181818;stroke-width:1;" x1="450.5054" x2="700.7407" y1="875.4531" y2="875.4531"/><text fill="#000000" font-family="sans-serif" font-size="13" lengthAdjust="spacing" textLength="127.042" x="457.5054" y="870.3872">checkpoint.create()</text></g><g class="message" data-entity-1="part4" data-entity-2="part5" data-source-line="40" id="msg20"><polygon fill="#181818" points="869.7388,900.5859,879.7388,904.5859,869.7388,908.5859,873.7388,904.5859" style="stroke:#181818;stroke-width:1;"/><line style="stroke:#181818;stroke-width:1;" x1="706.7407" x2="875.7388" y1="904.5859" y2="904.5859"/><text fill="#000000" font-family="sans-serif" font-size="13" lengthAdjust="spacing" textLength="129.1177" x="713.7407" y="899.52">INSERT checkpoints</text></g><g class="message" data-entity-1="part5" data-entity-2="part4" data-source-line="41" id="msg21"><polygon fill="#181818" points="717.7407,929.7188,707.7407,933.7188,717.7407,937.7188,713.7407,933.7188" style="stroke:#181818;stroke-width:1;"/><line style="stroke:#181818;stroke-width:1;stroke-dasharray:2,2;" x1="711.7407" x2="880.7388" y1="933.7188" y2="933.7188"/><text fill="#000000" font-family="sans-serif" font-size="13" lengthAdjust="spacing" textLength="129.0605" x="723.7407" y="928.6528">id e data de cria&#231;&#227;o</text></g><g class="message" data-entity-1="part4" data-entity-2="part3" data-source-line="42" id="msg22"><polygon fill="#181818" points="461.5054,958.8516,451.5054,962.8516,461.5054,966.8516,457.5054,962.8516" style="stroke:#181818;stroke-width:1;"/><line style="stroke:#181818;stroke-width:1;stroke-dasharray:2,2;" x1="455.5054" x2="705.7407" y1="962.8516" y2="962.8516"/><text fill="#000000" font-family="sans-serif" font-size="13" lengthAdjust="spacing" textLength="111.0967" x="467.5054" y="957.7856">CheckpointEntity</text></g><g class="message" data-entity-1="part3" data-entity-2="part3" data-source-line="43" id="msg23"><line style="stroke:#181818;stroke-width:1;" x1="450.5054" x2="492.5054" y1="991.9844" y2="991.9844"/><line style="stroke:#181818;stroke-width:1;" x1="492.5054" x2="492.5054" y1="991.9844" y2="1004.9844"/><line style="stroke:#181818;stroke-width:1;" x1="451.5054" x2="492.5054" y1="1004.9844" y2="1004.9844"/><polygon fill="#181818" points="461.5054,1000.9844,451.5054,1004.9844,461.5054,1008.9844,457.5054,1004.9844" style="stroke:#181818;stroke-width:1;"/><text fill="#000000" font-family="sans-serif" font-size="13" lengthAdjust="spacing" textLength="156.895" x="457.5054" y="986.9185">registra log de auditoria</text></g><g class="message" data-entity-1="part3" data-entity-2="part2" data-source-line="44" id="msg24"><polygon fill="#181818" points="310.3047,1030.1172,300.3047,1034.1172,310.3047,1038.1172,306.3047,1034.1172" style="stroke:#181818;stroke-width:1;"/><line style="stroke:#181818;stroke-width:1;stroke-dasharray:2,2;" x1="304.3047" x2="449.5054" y1="1034.1172" y2="1034.1172"/><text fill="#000000" font-family="sans-serif" font-size="13" lengthAdjust="spacing" textLength="109.3447" x="316.3047" y="1029.0513">checkpoint salvo</text></g><g class="message" data-entity-1="part2" data-entity-2="part1" data-source-line="45" id="msg25"><polygon fill="#181818" points="67.0313,1059.25,57.0313,1063.25,67.0313,1067.25,63.0313,1063.25" style="stroke:#181818;stroke-width:1;"/><line style="stroke:#181818;stroke-width:1;stroke-dasharray:2,2;" x1="61.0313" x2="298.3047" y1="1063.25" y2="1063.25"/><text fill="#000000" font-family="sans-serif" font-size="13" lengthAdjust="spacing" textLength="80.6787" x="73.0313" y="1058.1841">201 Created</text></g><?plantuml-src ZLJBRjim4BppA_Re718dxas02gIAqmO1hC3slTYGMuUjJ0ea9IJVqqE10lqA_rXNacrH2UJa98cSVStiAEXG4DmMrRE5gmGSRRGFpe8Ya4yaVvLMcm2rHiYpfH0eWtMGb-HGMITAT45BNI9ZCciui2XeUBmYLsj9WxCbbTPhplGY50PyH4_m1OsqGgGft3QVt8l4CbGEGI7eBMve2sagnA4sd7-EIa823_bg3LChtPIUW-D6jJLUH10Es3V3QCPTx76JDlkPE5mohc-GeNsw2-a80qrym53vz66-kBbRV3qJ4Po3sqauxcwncY_NJQNlSKVTzVdhAbe1GPSOj66ci1Za7NIVIpS_ffoReCDBr7wCB9sLv7qh7w3tktz6Ecji3t_Duq_xsAZVuBi-b1smoFYZ1WdCBcTmBIMLWHH8kstcOC7QWNT_ThyZIMS9r5XerPt3KxL5W-zeUhtElhqHTPfeDIfiLoBG3I_MfDckWR0HZfp-eINl5ijXF6_zxg_XQJqlUH5u1cLzVqSca1S0ewmXFmAs32ZojROCFiNQ9UJtBReB55GmGrtH_FvKeL0f2v9ZFbIXozXnmc-2ZEe5-PI0nw965rlz0nxhqUF-ybXJTiHDnjtL9pkuwnq_nTLFUQdHllsDERtVn54xzOs-yLA4slyR4GgxQH9ZfPfa6iUz5F7QC7tQI5UGjGIe_m00?></g></svg>