<svg xmlns="http://www.w3.org/2000/svg" xmlns:xlink="http://www.w3.org/1999/xlink" contentStyleType="text/css" data-diagram-type="SEQUENCE" height="1074px" preserveAspectRatio="none" style="width:853px;height:1074px;background:#FFFFFF;" version="1.1" viewBox="0 0 853 1074" width="853px" zoomAndPan="magnify"><?plantuml 1.2026.4beta2?><defs/><g><g class="title" data-source-line="1"><text fill="#000000" font-family="sans-serif" font-size="14" font-weight="700" lengthAdjust="spacing" textLength="371.1982" x="237.4583" y="27.9951">Fluxo 2: cadastro de equipe e gera&#231;&#227;o de UUID</text></g><rect fill="none" height="75.3984" style="stroke:#000000;stroke-width:1.5;" width="261.0391" x="576.0757" y="451.7891"/><g class="participant-lifeline" data-entity-uid="part1" data-qualified-name="Admin" data-source-line="3" id="part1-lifeline"><g><title>Admin</title><rect fill="#000000" fill-opacity="0.00000" height="873.4531" width="8" x="26.4321" y="118.5938"/><line style="stroke:#181818;stroke-width:0.5;stroke-dasharray:5,5;" x1="30" x2="30" y1="118.5938" y2="992.0469"/></g></g><g class="participant-lifeline" data-entity-uid="part2" data-qualified-name="Controller" data-source-line="4" id="part2-lifeline"><g><title>Controller</title><rect fill="#000000" fill-opacity="0.00000" height="873.4531" width="8" x="243.1089" y="118.5938"/><line style="stroke:#181818;stroke-width:0.5;stroke-dasharray:5,5;" x1="246.5225" x2="246.5225" y1="118.5938" y2="992.0469"/></g></g><g class="participant-lifeline" data-entity-uid="part3" data-qualified-name="Service" data-source-line="5" id="part3-lifeline"><g><title>Service</title><rect fill="#000000" fill-opacity="0.00000" height="873.4531" width="8" x="401.9141" y="118.5938"/><line style="stroke:#181818;stroke-width:0.5;stroke-dasharray:5,5;" x1="405.0435" x2="405.0435" y1="118.5938" y2="992.0469"/></g></g><g class="participant-lifeline" data-entity-uid="part4" data-qualified-name="Repository" data-source-line="6" id="part4-lifeline"><g><title>Repository</title><rect fill="#000000" fill-opacity="0.00000" height="873.4531" width="8" x="626.6118" y="118.5938"/><line style="stroke:#181818;stroke-width:0.5;stroke-dasharray:5,5;" x1="630.0757" x2="630.0757" y1="118.5938" y2="992.0469"/></g></g><g class="participant-lifeline" data-entity-uid="part5" data-qualified-name="Banco" data-source-line="7" id="part5-lifeline"><g><title>Banco</title><rect fill="#000000" fill-opacity="0.00000" height="873.4531" width="8" x="798.4551" y="118.5938"/><line style="stroke:#181818;stroke-width:0.5;stroke-dasharray:5,5;" x1="801.7954" x2="801.7954" y1="118.5938" y2="992.0469"/></g></g><g class="participant participant-head" data-entity-uid="part1" data-qualified-name="Admin" data-source-line="3" id="part1-head"><text fill="#000000" font-family="sans-serif" font-size="14" lengthAdjust="spacing" textLength="44.8643" x="5" y="115.292">Admin</text><ellipse cx="30.4321" cy="50.7969" fill="#E2E2F0" rx="8" ry="8" style="stroke:#181818;stroke-width:0.5;"/><path d="M30.4321,58.7969 L30.4321,85.7969 M17.4321,66.7969 L43.4321,66.7969 M30.4321,85.7969 L17.4321,100.7969 M30.4321,85.7969 L43.4321,100.7969" fill="none" style="stroke:#181818;stroke-width:0.5;"/></g><g class="participant participant-tail" data-entity-uid="part1" data-qualified-name="Admin" data-source-line="3" id="part1-tail"><text fill="#000000" font-family="sans-serif" font-size="14" lengthAdjust="spacing" textLength="44.8643" x="5" y="1004.042">Admin</text><ellipse cx="30.4321" cy="1015.8438" fill="#E2E2F0" rx="8" ry="8" style="stroke:#181818;stroke-width:0.5;"/><path d="M30.4321,1023.8438 L30.4321,1050.8438 M17.4321,1031.8438 L43.4321,1031.8438 M30.4321,1050.8438 L17.4321,1065.8438 M30.4321,1050.8438 L43.4321,1065.8438" fill="none" style="stroke:#181818;stroke-width:0.5;"/></g><g class="participant participant-head" data-entity-uid="part2" data-qualified-name="Controller" data-source-line="4" id="part2-head"><rect fill="#E2E2F0" height="30.2969" rx="2.5" ry="2.5" style="stroke:#181818;stroke-width:0.5;" width="83.1729" x="205.5225" y="87.2969"/><text fill="#000000" font-family="sans-serif" font-size="14" lengthAdjust="spacing" textLength="69.1729" x="212.5225" y="107.292">Controller</text></g><g class="participant participant-tail" data-entity-uid="part2" data-qualified-name="Controller" data-source-line="4" id="part2-tail"><rect fill="#E2E2F0" height="30.2969" rx="2.5" ry="2.5" style="stroke:#181818;stroke-width:0.5;" width="83.1729" x="205.5225" y="991.0469"/><text fill="#000000" font-family="sans-serif" font-size="14" lengthAdjust="spacing" textLength="69.1729" x="212.5225" y="1011.042">Controller</text></g><g class="participant participant-head" data-entity-uid="part3" data-qualified-name="Service" data-source-line="5" id="part3-head"><rect fill="#E2E2F0" height="30.2969" rx="2.5" ry="2.5" style="stroke:#181818;stroke-width:0.5;" width="65.7412" x="373.0435" y="87.2969"/><text fill="#000000" font-family="sans-serif" font-size="14" lengthAdjust="spacing" textLength="51.7412" x="380.0435" y="107.292">Service</text></g><g class="participant participant-tail" data-entity-uid="part3" data-qualified-name="Service" data-source-line="5" id="part3-tail"><rect fill="#E2E2F0" height="30.2969" rx="2.5" ry="2.5" style="stroke:#181818;stroke-width:0.5;" width="65.7412" x="373.0435" y="991.0469"/><text fill="#000000" font-family="sans-serif" font-size="14" lengthAdjust="spacing" textLength="51.7412" x="380.0435" y="1011.042">Service</text></g><g class="participant participant-head" data-entity-uid="part4" data-qualified-name="Repository" data-source-line="6" id="part4-head"><rect fill="#E2E2F0" height="30.2969" rx="2.5" ry="2.5" style="stroke:#181818;stroke-width:0.5;" width="89.0723" x="586.0757" y="87.2969"/><text fill="#000000" font-family="sans-serif" font-size="14" lengthAdjust="spacing" textLength="75.0723" x="593.0757" y="107.292">Repository</text></g><g class="participant participant-tail" data-entity-uid="part4" data-qualified-name="Repository" data-source-line="6" id="part4-tail"><rect fill="#E2E2F0" height="30.2969" rx="2.5" ry="2.5" style="stroke:#181818;stroke-width:0.5;" width="89.0723" x="586.0757" y="991.0469"/><text fill="#000000" font-family="sans-serif" font-size="14" lengthAdjust="spacing" textLength="75.0723" x="593.0757" y="1011.042">Repository</text></g><g class="participant participant-head" data-entity-uid="part5" data-qualified-name="Banco" data-source-line="7" id="part5-head"><text fill="#000000" font-family="sans-serif" font-size="14" lengthAdjust="spacing" textLength="43.3193" x="777.7954" y="115.292">Banco</text><path d="M784.4551,66.2969 C784.4551,56.2969 802.4551,56.2969 802.4551,56.2969 C802.4551,56.2969 820.4551,56.2969 820.4551,66.2969 L820.4551,92.2969 C820.4551,102.2969 802.4551,102.2969 802.4551,102.2969 C802.4551,102.2969 784.4551,102.2969 784.4551,92.2969 L784.4551,66.2969" fill="#E2E2F0" style="stroke:#181818;stroke-width:0.5;"/><path d="M784.4551,66.2969 C784.4551,76.2969 802.4551,76.2969 802.4551,76.2969 C802.4551,76.2969 820.4551,76.2969 820.4551,66.2969" fill="none" style="stroke:#181818;stroke-width:0.5;"/></g><g class="participant participant-tail" data-entity-uid="part5" data-qualified-name="Banco" data-source-line="7" id="part5-tail"><text fill="#000000" font-family="sans-serif" font-size="14" lengthAdjust="spacing" textLength="43.3193" x="777.7954" y="1004.042">Banco</text><path d="M784.4551,1017.3438 C784.4551,1007.3438 802.4551,1007.3438 802.4551,1007.3438 C802.4551,1007.3438 820.4551,1007.3438 820.4551,1017.3438 L820.4551,1043.3438 C820.4551,1053.3438 802.4551,1053.3438 802.4551,1053.3438 C802.4551,1053.3438 784.4551,1053.3438 784.4551,1043.3438 L784.4551,1017.3438" fill="#E2E2F0" style="stroke:#181818;stroke-width:0.5;"/><path d="M784.4551,1017.3438 C784.4551,1027.3438 802.4551,1027.3438 802.4551,1027.3438 C802.4551,1027.3438 820.4551,1027.3438 820.4551,1017.3438" fill="none" style="stroke:#181818;stroke-width:0.5;"/></g><rect fill="#EEEEEE" height="3" style="stroke:#EEEEEE;stroke-width:1;" width="847.1147" x="0" y="149.1602"/><line style="stroke:#000000;stroke-width:1;" x1="0" x2="847.1147" y1="149.1602" y2="149.1602"/><line style="stroke:#000000;stroke-width:1;" x1="0" x2="847.1147" y1="152.1602" y2="152.1602"/><rect fill="#EEEEEE" height="23.1328" style="stroke:#000000;stroke-width:2;" width="216.9663" x="315.0742" y="138.5938"/><text fill="#000000" font-family="sans-serif" font-size="13" font-weight="700" lengthAdjust="spacing" textLength="198.4404" x="321.0742" y="154.6606">Fase 1: cadastro da equipe</text><g class="message" data-entity-1="part1" data-entity-2="part2" data-source-line="11" id="msg1"><polygon fill="#181818" points="235.1089,188.8594,245.1089,192.8594,235.1089,196.8594,239.1089,192.8594" style="stroke:#181818;stroke-width:1;"/><line style="stroke:#181818;stroke-width:1;" x1="30.4321" x2="241.1089" y1="192.8594" y2="192.8594"/><text fill="#000000" font-family="sans-serif" font-size="13" lengthAdjust="spacing" textLength="192.6768" x="37.4321" y="187.7935">POST /competitions/:id/teams</text></g><g class="message" data-entity-1="part2" data-entity-2="part3" data-source-line="12" id="msg2"><polygon fill="#181818" points="393.9141,217.9922,403.9141,221.9922,393.9141,225.9922,397.9141,221.9922" style="stroke:#181818;stroke-width:1;"/><line style="stroke:#181818;stroke-width:1;" x1="247.1089" x2="399.9141" y1="221.9922" y2="221.9922"/><text fill="#000000" font-family="sans-serif" font-size="13" lengthAdjust="spacing" textLength="128.1528" x="254.1089" y="216.9263">validateInput(body)</text></g><g class="message" data-entity-1="part3" data-entity-2="part3" data-source-line="13" id="msg3"><line style="stroke:#181818;stroke-width:1;" x1="405.9141" x2="447.9141" y1="251.125" y2="251.125"/><line style="stroke:#181818;stroke-width:1;" x1="447.9141" x2="447.9141" y1="251.125" y2="264.125"/><line style="stroke:#181818;stroke-width:1;" x1="406.9141" x2="447.9141" y1="264.125" y2="264.125"/><polygon fill="#181818" points="416.9141,260.125,406.9141,264.125,416.9141,268.125,412.9141,264.125" style="stroke:#181818;stroke-width:1;"/><text fill="#000000" font-family="sans-serif" font-size="13" lengthAdjust="spacing" textLength="105.8916" x="412.9141" y="246.0591">gera UUID &#250;nico</text></g><g class="message" data-entity-1="part3" data-entity-2="part3" data-source-line="14" id="msg4"><line style="stroke:#181818;stroke-width:1;" x1="405.9141" x2="447.9141" y1="293.2578" y2="293.2578"/><line style="stroke:#181818;stroke-width:1;" x1="447.9141" x2="447.9141" y1="293.2578" y2="306.2578"/><line style="stroke:#181818;stroke-width:1;" x1="406.9141" x2="447.9141" y1="306.2578" y2="306.2578"/><polygon fill="#181818" points="416.9141,302.2578,406.9141,306.2578,416.9141,310.2578,412.9141,306.2578" style="stroke:#181818;stroke-width:1;"/><text fill="#000000" font-family="sans-serif" font-size="13" lengthAdjust="spacing" textLength="172.3008" x="412.9141" y="288.1919">monta entidade da equipe</text></g><g class="message" data-entity-1="part3" data-entity-2="part4" data-source-line="15" id="msg5"><polygon fill="#181818" points="618.6118,331.3906,628.6118,335.3906,618.6118,339.3906,622.6118,335.3906" style="stroke:#181818;stroke-width:1;"/><line style="stroke:#181818;stroke-width:1;" x1="405.9141" x2="624.6118" y1="335.3906" y2="335.3906"/><text fill="#000000" font-family="sans-serif" font-size="13" lengthAdjust="spacing" textLength="146.9673" x="412.9141" y="330.3247">team.create(entidade)</text></g><g class="message" data-entity-1="part4" data-entity-2="part5" data-source-line="16" id="msg6"><polygon fill="#181818" points="790.4551,360.5234,800.4551,364.5234,790.4551,368.5234,794.4551,364.5234" style="stroke:#181818;stroke-width:1;"/><line style="stroke:#181818;stroke-width:1;" x1="630.6118" x2="796.4551" y1="364.5234" y2="364.5234"/><text fill="#000000" font-family="sans-serif" font-size="13" lengthAdjust="spacing" textLength="91.6284" x="637.6118" y="359.4575">INSERT teams</text></g><g class="message" data-entity-1="part5" data-entity-2="part4" data-source-line="17" id="msg7"><polygon fill="#181818" points="641.6118,389.6563,631.6118,393.6563,641.6118,397.6563,637.6118,393.6563" style="stroke:#181818;stroke-width:1;"/><line style="stroke:#181818;stroke-width:1;stroke-dasharray:2,2;" x1="635.6118" x2="801.4551" y1="393.6563" y2="393.6563"/><text fill="#000000" font-family="sans-serif" font-size="13" lengthAdjust="spacing" textLength="129.0605" x="647.6118" y="388.5903">id e data de cria&#231;&#227;o</text></g><rect fill="#EEEEEE" height="3" style="stroke:#EEEEEE;stroke-width:1;" width="847.1147" x="0" y="422.2227"/><line style="stroke:#000000;stroke-width:1;" x1="0" x2="847.1147" y1="422.2227" y2="422.2227"/><line style="stroke:#000000;stroke-width:1;" x1="0" x2="847.1147" y1="425.2227" y2="425.2227"/><rect fill="#EEEEEE" height="23.1328" style="stroke:#000000;stroke-width:2;" width="225.8911" x="310.6118" y="411.6563"/><text fill="#000000" font-family="sans-serif" font-size="13" font-weight="700" lengthAdjust="spacing" textLength="207.3652" x="316.6118" y="427.7231">Fase 2: cadastro dos atletas</text><path d="M576.0757,451.7891 L652.6997,451.7891 L652.6997,458.9219 L642.6997,468.9219 L576.0757,468.9219 L576.0757,451.7891" fill="#EEEEEE" style="stroke:#000000;stroke-width:1.5;"/><rect fill="none" height="75.3984" style="stroke:#000000;stroke-width:1.5;" width="261.0391" x="576.0757" y="451.7891"/><text fill="#000000" font-family="sans-serif" font-size="13" font-weight="700" lengthAdjust="spacing" textLength="31.624" x="591.0757" y="464.856">loop</text><text fill="#000000" font-family="sans-serif" font-size="11" font-weight="700" lengthAdjust="spacing" textLength="111.6919" x="667.6997" y="463.9995">[para cada atleta]</text><g class="message" data-entity-1="part4" data-entity-2="part5" data-source-line="22" id="msg8"><polygon fill="#181818" points="790.4551,486.0547,800.4551,490.0547,790.4551,494.0547,794.4551,490.0547" style="stroke:#181818;stroke-width:1;"/><line style="stroke:#181818;stroke-width:1;" x1="630.6118" x2="796.4551" y1="490.0547" y2="490.0547"/><text fill="#000000" font-family="sans-serif" font-size="13" lengthAdjust="spacing" textLength="103.9111" x="637.6118" y="484.9888">INSERT athletes</text></g><g class="message" data-entity-1="part5" data-entity-2="part4" data-source-line="23" id="msg9"><polygon fill="#181818" points="641.6118,515.1875,631.6118,519.1875,641.6118,523.1875,637.6118,519.1875" style="stroke:#181818;stroke-width:1;"/><line style="stroke:#181818;stroke-width:1;stroke-dasharray:2,2;" x1="635.6118" x2="801.4551" y1="519.1875" y2="519.1875"/><text fill="#000000" font-family="sans-serif" font-size="13" lengthAdjust="spacing" textLength="74.0708" x="647.6118" y="514.1216">id do atleta</text></g><g class="message" data-entity-1="part4" data-entity-2="part3" data-source-line="26" id="msg10"><polygon fill="#181818" points="416.9141,551.3203,406.9141,555.3203,416.9141,559.3203,412.9141,555.3203" style="stroke:#181818;stroke-width:1;"/><line style="stroke:#181818;stroke-width:1;stroke-dasharray:2,2;" x1="410.9141" x2="629.6118" y1="555.3203" y2="555.3203"/><text fill="#000000" font-family="sans-serif" font-size="13" lengthAdjust="spacing" textLength="124.8901" x="422.9141" y="550.2544">equipe com atletas</text></g><g class="message" data-entity-1="part3" data-entity-2="part3" data-source-line="27" id="msg11"><line style="stroke:#181818;stroke-width:1;" x1="405.9141" x2="447.9141" y1="584.4531" y2="584.4531"/><line style="stroke:#181818;stroke-width:1;" x1="447.9141" x2="447.9141" y1="584.4531" y2="597.4531"/><line style="stroke:#181818;stroke-width:1;" x1="406.9141" x2="447.9141" y1="597.4531" y2="597.4531"/><polygon fill="#181818" points="416.9141,593.4531,406.9141,597.4531,416.9141,601.4531,412.9141,597.4531" style="stroke:#181818;stroke-width:1;"/><text fill="#000000" font-family="sans-serif" font-size="13" lengthAdjust="spacing" textLength="176.7886" x="412.9141" y="579.3872">gera link p&#250;blico com UUID</text></g><g class="message" data-entity-1="part3" data-entity-2="part3" data-source-line="28" id="msg12"><line style="stroke:#181818;stroke-width:1;" x1="405.9141" x2="447.9141" y1="626.5859" y2="626.5859"/><line style="stroke:#181818;stroke-width:1;" x1="447.9141" x2="447.9141" y1="626.5859" y2="639.5859"/><line style="stroke:#181818;stroke-width:1;" x1="405.9141" x2="447.9141" y1="639.5859" y2="639.5859"/><line style="stroke:#181818;stroke-width:1;" x1="406.9141" x2="416.9141" y1="639.5859" y2="635.5859"/><line style="stroke:#181818;stroke-width:1;" x1="406.9141" x2="416.9141" y1="639.5859" y2="643.5859"/><text fill="#000000" font-family="sans-serif" font-size="13" lengthAdjust="spacing" textLength="210.6978" x="412.9141" y="621.52">atualiza ranking em background</text></g><g class="message" data-entity-1="part3" data-entity-2="part2" data-source-line="29" id="msg13"><polygon fill="#181818" points="258.1089,664.7188,248.1089,668.7188,258.1089,672.7188,254.1089,668.7188" style="stroke:#181818;stroke-width:1;"/><line style="stroke:#181818;stroke-width:1;stroke-dasharray:2,2;" x1="252.1089" x2="404.9141" y1="668.7188" y2="668.7188"/><text fill="#000000" font-family="sans-serif" font-size="13" lengthAdjust="spacing" textLength="134.8052" x="264.1089" y="663.6528">equipe e link p&#250;blico</text></g><g class="message" data-entity-1="part2" data-entity-2="part1" data-source-line="30" id="msg14"><polygon fill="#181818" points="41.4321,693.8516,31.4321,697.8516,41.4321,701.8516,37.4321,697.8516" style="stroke:#181818;stroke-width:1;"/><line style="stroke:#181818;stroke-width:1;stroke-dasharray:2,2;" x1="35.4321" x2="246.1089" y1="697.8516" y2="697.8516"/><text fill="#000000" font-family="sans-serif" font-size="13" lengthAdjust="spacing" textLength="139.6992" x="47.4321" y="692.7856">201 Created com link</text></g><rect fill="#EEEEEE" height="3" style="stroke:#EEEEEE;stroke-width:1;" width="847.1147" x="0" y="726.418"/><line style="stroke:#000000;stroke-width:1;" x1="0" x2="847.1147" y1="726.418" y2="726.418"/><line style="stroke:#000000;stroke-width:1;" x1="0" x2="847.1147" y1="729.418" y2="729.418"/><rect fill="#EEEEEE" height="23.1328" style="stroke:#000000;stroke-width:2;" width="169.3018" x="338.9065" y="715.8516"/><text fill="#000000" font-family="sans-serif" font-size="13" font-weight="700" lengthAdjust="spacing" textLength="150.7759" x="344.9065" y="731.9185">Fase 3: c&#243;pia do link</text><g class="message" data-entity-1="part1" data-entity-2="part2" data-source-line="34" id="msg15"><polygon fill="#181818" points="235.1089,766.1172,245.1089,770.1172,235.1089,774.1172,239.1089,770.1172" style="stroke:#181818;stroke-width:1;"/><line style="stroke:#181818;stroke-width:1;" x1="30.4321" x2="241.1089" y1="770.1172" y2="770.1172"/><text fill="#000000" font-family="sans-serif" font-size="13" lengthAdjust="spacing" textLength="95.8623" x="37.4321" y="765.0513">GET /teams/:id</text></g><g class="message" data-entity-1="part2" data-entity-2="part3" data-source-line="35" id="msg16"><polygon fill="#181818" points="393.9141,795.25,403.9141,799.25,393.9141,803.25,397.9141,799.25" style="stroke:#181818;stroke-width:1;"/><line style="stroke:#181818;stroke-width:1;" x1="247.1089" x2="399.9141" y1="799.25" y2="799.25"/><text fill="#000000" font-family="sans-serif" font-size="13" lengthAdjust="spacing" textLength="124.4839" x="254.1089" y="794.1841">getTeamWithLink()</text></g><g class="message" data-entity-1="part3" data-entity-2="part4" data-source-line="36" id="msg17"><polygon fill="#181818" points="618.6118,824.3828,628.6118,828.3828,618.6118,832.3828,622.6118,828.3828" style="stroke:#181818;stroke-width:1;"/><line style="stroke:#181818;stroke-width:1;" x1="405.9141" x2="624.6118" y1="828.3828" y2="828.3828"/><text fill="#000000" font-family="sans-serif" font-size="13" lengthAdjust="spacing" textLength="113.2422" x="412.9141" y="823.3169">team.findById(id)</text></g><g class="message" data-entity-1="part4" data-entity-2="part5" data-source-line="37" id="msg18"><polygon fill="#181818" points="790.4551,853.5156,800.4551,857.5156,790.4551,861.5156,794.4551,857.5156" style="stroke:#181818;stroke-width:1;"/><line style="stroke:#181818;stroke-width:1;" x1="630.6118" x2="796.4551" y1="857.5156" y2="857.5156"/><text fill="#000000" font-family="sans-serif" font-size="13" lengthAdjust="spacing" textLength="147.8433" x="637.6118" y="852.4497">SELECT team, athletes</text></g><g class="message" data-entity-1="part5" data-entity-2="part4" data-source-line="38" id="msg19"><polygon fill="#181818" points="641.6118,882.6484,631.6118,886.6484,641.6118,890.6484,637.6118,886.6484" style="stroke:#181818;stroke-width:1;"/><line style="stroke:#181818;stroke-width:1;stroke-dasharray:2,2;" x1="635.6118" x2="801.4551" y1="886.6484" y2="886.6484"/><text fill="#000000" font-family="sans-serif" font-size="13" lengthAdjust="spacing" textLength="108.0308" x="647.6118" y="881.5825">dados da equipe</text></g><g class="message" data-entity-1="part4" data-entity-2="part3" data-source-line="39" id="msg20"><polygon fill="#181818" points="416.9141,911.7813,406.9141,915.7813,416.9141,919.7813,412.9141,915.7813" style="stroke:#181818;stroke-width:1;"/><line style="stroke:#181818;stroke-width:1;stroke-dasharray:2,2;" x1="410.9141" x2="629.6118" y1="915.7813" y2="915.7813"/><text fill="#000000" font-family="sans-serif" font-size="13" lengthAdjust="spacing" textLength="155.0605" x="422.9141" y="910.7153">TeamEntity com atletas</text></g><g class="message" data-entity-1="part3" data-entity-2="part2" data-source-line="40" id="msg21"><polygon fill="#181818" points="258.1089,940.9141,248.1089,944.9141,258.1089,948.9141,254.1089,944.9141" style="stroke:#181818;stroke-width:1;"/><line style="stroke:#181818;stroke-width:1;stroke-dasharray:2,2;" x1="252.1089" x2="404.9141" y1="944.9141" y2="944.9141"/><text fill="#000000" font-family="sans-serif" font-size="13" lengthAdjust="spacing" textLength="118.7964" x="264.1089" y="939.8481">uuid e link p&#250;blico</text></g><g class="message" data-entity-1="part2" data-entity-2="part1" data-source-line="41" id="msg22"><polygon fill="#181818" points="41.4321,970.0469,31.4321,974.0469,41.4321,978.0469,37.4321,974.0469" style="stroke:#181818;stroke-width:1;"/><line style="stroke:#181818;stroke-width:1;stroke-dasharray:2,2;" x1="35.4321" x2="246.1089" y1="974.0469" y2="974.0469"/><text fill="#000000" font-family="sans-serif" font-size="13" lengthAdjust="spacing" textLength="184.793" x="47.4321" y="968.981">200 OK com link para copiar</text></g><?plantuml-src ZLD1Rjim4Bpp5NkqWQPEqfi15qXSfJ0QD4Ni8ESroJeBIoHBKK7Tx-IG1_IMgpxM5MLPaX4PFGcYPdQ7CwD08TLmanQ_BLnEGQB2F7WBIeF-LP3Z1soqn_ArV8cd3m-BBqAW3DR3bSh828S-a2I79i3S6cQdgVQzuwNspoHrx-nUEviJZza9XG7Nc6kuHYEj4BCPt5Il5rr1s0YQpOI8c-7iSsSXJE77tN854sapfmC5iYQVJ4bDWiOi5nqay_QAcFICAR40lJ2k2AErLRknQBxsW9KDyVfGlXbYdU-YCbx3KatWeMpNGNONtLwT2PMwZz9hbZ1gQ6FHWJ0X-iBOnVTbSh-2-aBruTdnF59GhMKHl5vwggDhJUsbR7D0Ba30FDgQMkk0Gy88sNyI02VLO7XYcCuPDon9sMQQDahqhjUpRvynPzW8En56IcOBhdnRfnn7vCHsjeGk0qF1IVz1y6YsP3QWCrYZt6wyBLZIWNHSgiDlqDlMgnDJwa9EuVBy0kOnJ1K5LQJM-q_iVVdN4LP-n7d3PVwQS9TZqbM91-kxqM75e4SAJxSyS3G-NRIVPDJrRg56f8PAjankatbTiWzjk0FHSbkvGstB1uEjH2PSxx1xFzpZwnT5BF9_cduETzyEVkyRRDbd_my0?></g></svg>